HIERARCHY
ROOT Hips
{
	OFFSET -0.001795 -0.223333 0.028219
	CHANNELS 6 Xposition Yposition Zposition Zrotation Yrotation Xrotation 
	JOINT LeftUpLeg
	{
		OFFSET 0.069520 -0.091406 -0.006815
		CHANNELS 3 Zrotation Yrotation Xrotation
		JOINT LeftLeg
		{
			OFFSET 0.034277 -0.375199 -0.004496
			CHANNELS 3 Zrotation Yrotation Xrotation
			JOINT LeftFoot
			{
				OFFSET -0.013596 -0.397961 -0.043693
				CHANNELS 3 Zrotation Yrotation Xrotation
				JOINT LeftToe
				{
					OFFSET 0.026358 -0.055791 0.119288
					CHANNELS 3 Zrotation Yrotation Xrotation
					End Site
					{
						OFFSET 0.000000 0.000000 0.000000
					}
				}
			}
		}
	}
	JOINT RightUpLeg
	{
		OFFSET -0.067670 -0.090522 -0.004320
		CHANNELS 3 Zrotation Yrotation Xrotation
		JOINT RightLeg
		{
			OFFSET -0.038290 -0.382569 -0.008850
			CHANNELS 3 Zrotation Yrotation Xrotation
			JOINT RightFoot
			{
				OFFSET 0.015774 -0.398415 -0.042312
				CHANNELS 3 Zrotation Yrotation Xrotation
				JOINT RightToe
				{
					OFFSET -0.025372 -0.048144 0.123348
					CHANNELS 3 Zrotation Yrotation Xrotation
					End Site
					{
						OFFSET 0.000000 0.000000 0.000000
					}
				}
			}
		}
	}
	JOINT Spine
	{
		OFFSET -0.002533 0.108963 -0.026696
		CHANNELS 3 Zrotation Yrotation Xrotation
		JOINT Spine1
		{
			OFFSET 0.005487 0.135180 0.001092
			CHANNELS 3 Zrotation Yrotation Xrotation
			JOINT Spine2
			{
				OFFSET 0.001457 0.052922 0.025425
				CHANNELS 3 Zrotation Yrotation Xrotation
				JOINT Neck
				{
					OFFSET -0.002778 0.213870 -0.042857
					CHANNELS 3 Zrotation Yrotation Xrotation
					JOINT Head
					{
						OFFSET 0.005152 0.064970 0.051349
						CHANNELS 3 Zrotation Yrotation Xrotation
						End Site
						{
							OFFSET 0.000000 0.000000 0.000000
						}
					}
				}
				JOINT LeftShoulder
				{
					OFFSET 0.078845 0.121749 -0.034090
					CHANNELS 3 Zrotation Yrotation Xrotation
					JOINT LeftArm
					{
						OFFSET 0.090977 0.030469 -0.008868
						CHANNELS 3 Zrotation Yrotation Xrotation
						JOINT LeftForeArm
						{
							OFFSET 0.259612 -0.012772 -0.027456
							CHANNELS 3 Zrotation Yrotation Xrotation
							JOINT LeftHand
							{
								OFFSET 0.249234 0.008986 -0.001171
								CHANNELS 3 Zrotation Yrotation Xrotation
								End Site
								{
									OFFSET 0.000000 0.000000 0.000000
								}
							}
						}
					}
				}
				JOINT RightShoulder
				{
					OFFSET -0.081759 0.118833 -0.038615
					CHANNELS 3 Zrotation Yrotation Xrotation
					JOINT RightArm
					{
						OFFSET -0.096012 0.032551 -0.009143
						CHANNELS 3 Zrotation Yrotation Xrotation
						JOINT RightForeArm
						{
							OFFSET -0.253742 -0.013329 -0.021401
							CHANNELS 3 Zrotation Yrotation Xrotation
							JOINT RightHand
							{
								OFFSET -0.255298 0.007772 -0.005559
								CHANNELS 3 Zrotation Yrotation Xrotation
								End Site
								{
									OFFSET 0.000000 0.000000 0.000000
								}
							}
						}
					}
				}
			}
		}
	}
}
MOTION
Frames: 12
Frame Time: 0.050000
0.000000 0.949526 0.000000 0.509536 1.443157 4.829860 2.616537 0.112102 2.705342 -2.404195 0.365613 -9.420318 1.016039 5.716653 9.654943 0.000000 0.000000 0.000000 -2.093012 0.038484 0.368725 1.400690 -0.294838 -5.275804 -0.243234 -2.995625 5.480649 0.000000 0.000000 0.000000 4.830436 0.142096 -3.230831 -2.895150 1.361359 -11.870523 -2.659772 2.314712 18.940099 6.039888 -1.385073 -24.145079 0.000000 0.000000 0.000000 -19.284251 -8.745848 2.493719 -12.947884 1.961162 -1.806680 18.983943 -6.035835 -0.814420 0.000000 0.000000 0.000000 18.997334 0.273023 -0.324452 13.570285 -2.091929 -1.927646 -16.681185 11.596298 -0.933026 0.000000 0.000000 0.000000 
0.000204 0.948427 0.001601 0.369693 1.399450 5.175633 2.652936 0.113219 2.778246 -2.242632 0.372452 -10.227030 0.650937 4.974152 9.308480 0.000000 0.000000 0.000000 -2.125995 0.065544 0.080208 1.586969 -0.299994 -5.058830 -0.501368 -3.486673 5.248806 0.000000 0.000000 0.000000 5.307789 0.147208 -3.351779 -3.401508 1.535896 -11.790016 -2.822243 3.443428 18.443783 6.491654 -1.293208 -25.415704 0.000000 0.000000 0.000000 -16.969952 -9.394481 2.615716 -13.047637 1.339563 -1.734469 17.846546 -4.076295 -0.535299 0.000000 0.000000 0.000000 19.616607 -2.159087 -1.438248 13.545500 -2.848672 -2.007749 -15.356834 13.268352 -0.972092 0.000000 0.000000 0.000000 
0.000481 0.947588 0.002660 0.303645 2.124719 5.207787 2.992879 0.070139 2.472391 -2.929654 0.368611 -9.459888 0.980324 5.301140 8.382198 0.000000 0.000000 0.000000 -2.033750 0.075680 -0.107386 1.812523 -0.306178 -4.602677 -0.203165 -2.533722 4.651399 0.000000 0.000000 0.000000 6.008914 0.180100 -3.743475 -3.826508 1.672877 -14.246582 -3.047003 3.524112 21.714279 7.336510 -1.651336 -26.281066 0.000000 0.000000 0.000000 -15.548167 -10.013563 2.975092 -13.784286 2.307734 -1.974247 18.669364 -4.245033 -0.614533 0.000000 0.000000 0.000000 20.232582 -1.343942 -0.745399 13.912493 -2.957405 -2.194192 -16.141517 11.364067 -0.831053 0.000000 0.000000 0.000000 
0.000799 0.946970 0.003340 0.220529 2.524408 5.171216 3.110591 0.073287 2.667099 -3.182787 0.368323 -9.624764 1.155215 5.569374 8.177104 0.000000 0.000000 0.000000 -2.125474 0.068263 -0.007961 2.468214 -0.348892 -4.346833 0.035857 -1.981438 4.699195 0.000000 0.000000 0.000000 6.123324 0.210912 -4.077912 -4.094601 1.755995 -15.147883 -2.631995 3.548098 22.952032 7.150004 -1.380467 -27.447318 0.000000 0.000000 0.000000 -16.173085 -10.868623 3.361528 -13.773585 3.504175 -2.066984 19.943555 -3.839913 -0.623784 0.000000 0.000000 0.000000 21.828630 -1.163781 -0.560926 12.668374 -4.203154 -2.078601 -16.561787 11.578411 -0.907478 0.000000 0.000000 0.000000 
0.001291 0.946592 0.003722 0.078589 2.709968 5.234438 3.246957 0.060832 2.616515 -3.577517 0.372223 -9.408897 1.221910 5.546433 7.717068 0.000000 0.000000 0.000000 -2.198206 0.091085 -0.264399 2.534739 -0.353966 -4.298189 0.021878 -1.951620 4.576658 0.000000 0.000000 0.000000 6.109408 0.241775 -4.440496 -3.880521 1.684975 -15.716334 -2.679519 3.614390 23.478275 7.976757 -1.816725 -27.456282 0.000000 0.000000 0.000000 -17.069948 -10.968136 3.353860 -14.068631 3.845518 -2.141175 20.921615 -4.803875 -0.817119 0.000000 0.000000 0.000000 23.184586 -1.401071 -0.662390 12.705090 -3.599277 -2.087940 -17.072812 11.767782 -0.968471 0.000000 0.000000 0.000000 
0.001925 0.946153 0.003809 0.049706 2.623067 5.286441 2.878287 0.069998 2.442087 -2.989044 0.361563 -9.196626 1.535941 6.029000 7.512018 0.000000 0.000000 0.000000 -2.804256 0.145620 -0.746070 2.857180 -0.367005 -3.666723 -0.001769 -1.915769 4.341134 0.000000 0.000000 0.000000 5.890300 0.261946 -4.698225 -3.771511 1.653988 -15.281113 -2.437546 3.119782 23.404450 7.756905 -1.711586 -27.954972 0.000000 0.000000 0.000000 -18.050006 -10.398835 3.174836 -15.475649 3.967418 -2.415312 21.110946 -6.140794 -1.004894 0.000000 0.000000 0.000000 24.049099 -0.859094 -0.533581 13.803350 -2.560767 -2.213837 -17.890928 11.838206 -1.043121 0.000000 0.000000 0.000000 
0.002593 0.945790 0.003723 -0.113643 2.581705 5.300652 2.913233 0.063998 2.374763 -2.926732 0.360291 -9.141815 1.490306 6.012861 7.717982 0.000000 0.000000 0.000000 -2.775264 0.145030 -0.744193 2.893832 -0.373693 -3.929772 0.163942 -1.594035 4.484165 0.000000 0.000000 0.000000 6.028595 0.274010 -4.806624 -3.575837 1.596458 -14.714081 -2.568203 2.915166 23.080692 8.056790 -1.852366 -28.255115 0.000000 0.000000 0.000000 -19.899679 -10.389826 3.158694 -17.019025 4.256107 -2.701323 21.158207 -7.860936 -1.250971 0.000000 0.000000 0.000000 25.473036 -0.384934 -0.361227 15.183037 -1.666951 -2.381143 -17.910977 12.452784 -1.113680 0.000000 0.000000 0.000000 
0.003202 0.945492 0.003541 -0.214698 2.314732 5.350074 2.748832 0.065788 2.246370 -2.856179 0.362198 -9.194292 1.710488 6.434208 7.886718 0.000000 0.000000 0.000000 -2.840531 0.168456 -1.010242 2.920997 -0.370701 -3.716659 0.230137 -1.284867 4.072230 0.000000 0.000000 0.000000 6.256625 0.278191 -4.805751 -3.614851 1.604694 -14.484839 -2.633700 2.611935 23.188255 8.247801 -1.935564 -28.929925 0.000000 0.000000 0.000000 -22.282632 -10.854608 3.517866 -19.579794 4.476253 -3.204957 20.759203 -9.795197 -1.473199 0.000000 0.000000 0.000000 27.785606 0.622563 0.064199 16.730963 -0.526690 -2.536772 -17.562410 12.733385 -1.118108 0.000000 0.000000 0.000000 
0.003642 0.944931 0.003286 -0.405249 2.183547 5.247108 2.863916 0.075834 2.471230 -2.783324 0.362279 -9.217526 1.603658 6.246589 7.916522 0.000000 0.000000 0.000000 -2.768832 0.143280 -0.705824 3.117953 -0.392080 -4.239589 0.150902 -1.619366 4.412287 0.000000 0.000000 0.000000 6.352030 0.289869 -4.876768 -3.235162 1.482478 -13.914594 -2.873374 2.599739 23.071826 8.129360 -1.802233 -29.448341 0.000000 0.000000 0.000000 -24.937015 -11.332151 3.766741 -22.317168 3.826184 -3.592561 20.154011 -11.320770 -1.608198 0.000000 0.000000 0.000000 30.101825 1.407095 0.504291 19.333574 0.565312 -2.828873 -17.455408 13.597160 -1.188816 0.000000 0.000000 0.000000 
0.003777 0.944598 0.002942 -0.646561 2.138453 5.141380 3.310411 0.062645 2.620298 -2.966219 0.366000 -9.096514 1.846116 6.491802 7.348673 0.000000 0.000000 0.000000 -2.511787 0.133171 -0.664881 3.215527 -0.397673 -4.128373 0.196725 -1.412342 4.163853 0.000000 0.000000 0.000000 6.749741 0.279553 -4.677773 -3.312738 1.508981 -13.623381 -2.962532 2.040399 23.051227 8.313343 -1.830714 -30.533643 0.000000 0.000000 0.000000 -27.530114 -11.773636 4.248292 -25.380057 3.049867 -4.036470 19.535571 -12.416551 -1.647020 0.000000 0.000000 0.000000 31.999302 2.238043 0.770384 22.574105 1.166279 -3.159972 -16.776365 14.632907 -1.224837 0.000000 0.000000 0.000000 
0.003654 0.944138 0.002681 -0.775457 1.999023 5.052748 3.265267 0.070121 2.676168 -2.562160 0.353919 -8.560191 1.980874 6.553249 6.797005 0.000000 0.000000 0.000000 -2.524890 0.117062 -0.456411 3.707109 -0.435422 -4.463495 -0.027834 -2.009304 4.329339 0.000000 0.000000 0.000000 6.870445 0.267941 -4.510178 -3.178898 1.463799 -13.172596 -3.008382 2.149088 22.662880 8.048632 -1.646666 -30.735859 0.000000 0.000000 0.000000 -29.790247 -12.359613 4.587311 -28.112451 2.270196 -4.307045 18.606648 -13.727105 -1.690659 0.000000 0.000000 0.000000 34.034753 2.946483 1.238110 26.272819 1.342149 -3.616304 -15.725640 16.182941 -1.242403 0.000000 0.000000 0.000000 
0.003396 0.944150 0.002782 -0.842005 1.806621 5.072761 3.259901 0.069392 2.636199 -2.233928 0.342503 -8.220279 2.012489 6.388850 6.121507 0.000000 0.000000 0.000000 -2.452949 0.112134 -0.406019 3.867019 -0.446386 -4.739410 0.029651 -1.987467 4.570350 0.000000 0.000000 0.000000 7.145773 0.260978 -4.402785 -3.481245 1.565977 -12.651738 -2.995212 1.847048 22.207387 8.097877 -1.635639 -31.337347 0.000000 0.000000 0.000000 -31.324736 -12.080863 4.576638 -30.365183 1.082178 -4.434838 17.548364 -15.090229 -1.694555 0.000000 0.000000 0.000000 35.201947 2.850206 0.889179 30.182294 1.411516 -4.025689 -13.357023 18.802722 -1.151832 0.000000 0.000000 0.000000 
